<svg width="60" height="46" viewBox="0 0 60 46" fill="none" xmlns="http://www.w3.org/2000/svg">
<path d="M59.4829 15.3288L44.4622 0.308C44.4562 0.302 44.4497 0.296999 44.4436 0.291299C44.4246 0.273233 44.4057 0.255333 44.3854 0.2386C44.3722 0.2279 44.3584 0.218499 44.3449 0.208399C44.3309 0.197966 44.3172 0.1871 44.3025 0.177266C44.2876 0.1673 44.272 0.1585 44.2566 0.1494C44.2425 0.1409 44.2286 0.132066 44.2141 0.124166C44.199 0.116266 44.1835 0.109367 44.1681 0.102167C44.1523 0.0945334 44.1367 0.0867331 44.1205 0.0799998C44.106 0.0739665 44.0914 0.0692994 44.0767 0.0639994C44.059 0.0575328 44.0413 0.0507998 44.023 0.0452332C44.0091 0.0409665 43.9948 0.0378992 43.9807 0.0343658C43.9617 0.0293992 43.9427 0.0241001 43.9232 0.0202667C43.9078 0.0172001 43.8921 0.0155668 43.8767 0.0132334C43.8582 0.0104334 43.84 0.00706655 43.8213 0.00529989C43.7959 0.00263322 43.7706 0.00206593 43.7454 0.0013326C43.7363 0.00116593 43.7275 0 43.7183 0H16.0728C16.0608 0 16.049 0.00146595 16.0371 0.00176595C16.0148 0.00249928 15.9924 0.00293329 15.9702 0.00516663C15.95 0.00723329 15.9303 0.0107326 15.9105 0.0138326C15.8964 0.0160326 15.8824 0.0175001 15.8685 0.0202667C15.8477 0.0244001 15.8274 0.0299659 15.807 0.0352325C15.7942 0.0384659 15.7813 0.0412328 15.7687 0.0450328C15.749 0.0510661 15.73 0.0582328 15.7109 0.0652995C15.6977 0.0701661 15.6845 0.0742664 15.6714 0.0796997C15.6535 0.0871664 15.6362 0.0956659 15.6188 0.104199C15.6051 0.110666 15.5915 0.116667 15.578 0.1237C15.5611 0.1328 15.5449 0.142934 15.5287 0.1529C15.5156 0.1608 15.5023 0.168166 15.4897 0.176666C15.4716 0.1887 15.4546 0.2019 15.4374 0.214967C15.4271 0.222734 15.4166 0.229766 15.4066 0.237999C15.3795 0.260299 15.3535 0.283633 15.3287 0.308433L0.307967 15.3288C0.301667 15.3351 0.2962 15.3421 0.290067 15.3486C0.272467 15.3671 0.254967 15.3856 0.2387 15.4054C0.2271 15.4195 0.217 15.4343 0.206267 15.4487C0.196567 15.4619 0.186433 15.4745 0.177367 15.488C0.1665 15.5043 0.156967 15.5212 0.147133 15.5379C0.139633 15.5507 0.131433 15.5631 0.124367 15.5763C0.115567 15.5931 0.107933 15.6102 0.0998667 15.6272C0.0932667 15.6413 0.0862333 15.6553 0.0802 15.6696C0.0791667 15.672 0.0778667 15.6743 0.0768333 15.6767C0.0712667 15.6909 0.067 15.7054 0.0618667 15.7198C0.0563 15.7354 0.0502667 15.7508 0.0454333 15.7668C0.0403 15.7838 0.0364667 15.801 0.0322333 15.8181C0.0282667 15.8343 0.0237333 15.8501 0.0203667 15.8666C0.0164 15.8867 0.0140667 15.9069 0.0111333 15.927C0.00936667 15.9408 0.00656667 15.9544 0.00526667 15.9684C0.00173333 16.003 0 16.0378 0 16.0726C0 16.1073 0.00173333 16.1421 0.00526667 16.1767C0.0066 16.1908 0.0094 16.2043 0.0112667 16.2183C0.0140667 16.2384 0.0164333 16.2586 0.0203667 16.2786C0.0237333 16.295 0.0282667 16.3109 0.0322333 16.3272C0.0365 16.3444 0.0403333 16.3614 0.0454333 16.3784C0.0502667 16.3944 0.0562667 16.4098 0.0618667 16.4255C0.0679 16.4422 0.0733 16.4591 0.0802 16.4755C0.0862333 16.4899 0.0932667 16.5039 0.0998667 16.5179C0.107933 16.5351 0.115567 16.5521 0.124367 16.5688C0.1314 16.582 0.139633 16.5945 0.147133 16.6073C0.156967 16.624 0.1665 16.6409 0.177367 16.6572C0.186433 16.6707 0.1966 16.6833 0.206267 16.6965C0.216967 16.7109 0.2271 16.7257 0.2387 16.7398C0.254967 16.7596 0.272467 16.7781 0.290067 16.7965C0.2962 16.803 0.301667 16.81 0.307967 16.8164L29.1518 45.6602C29.3572 45.8655 29.6265 45.9682 29.8956 45.9682C30.1647 45.9682 30.434 45.8655 30.6394 45.6602L59.4829 16.8164C59.8936 16.4055 59.8936 15.7396 59.4829 15.3288ZM16.5086 2.10363H24.3245L15.517 15.0208H3.591L16.5086 2.10363ZM32.9204 2.10363L41.7282 15.0208H18.063L26.8705 2.10363H32.9204ZM43.2826 2.10363L56.1997 15.0208H44.2742L35.4664 2.10363H43.2826ZM42.0208 17.1244L29.8956 41.5136L17.7704 17.1244H42.0208ZM15.421 17.1244L27.117 40.6502L3.59113 17.1244H15.421ZM44.3702 17.1244H56.1997L32.6742 40.6502L44.3702 17.1244Z" fill="#BEB698"/>
</svg>
